  0
SECTION
  2
HEADER
  9
$ANGBASE
  50
0.0
  9
$ANGDIR
  70
1
  9
$MEASUREMENT
  70
0
  0
ENDSEC
  0
SECTION
  2
TABLES
  0
TABLE
  2
LTYPE
  70
4
  0
LTYPE
  5
40F
  2
CONTINUOUS
  70
0
  3
Solid line
  72
65
  73
0
  40
0.0
  0
LTYPE
  5
410
  2
DASHDOT
 70
0
  3
Dash Dot ____ _ ____ _
 72
65
 73
4
 40
2.0
 49
1.25
 49
-0.25
 49
0.25
 49
-0.25
  0
LTYPE
  5
411
  2
DASHED
 70
0
  3
Dashed __ __ __ __ __
 72
65
 73
2
 40
0.75
 49
0.5
 49
-0.25
  0
LTYPE
  5
43B
  2
DOTTED
 70
0
  3
Dotted .  .  .  .
 72
65
 73
2
 40
0.2
 49
0.0
 49
-0.2
  0
ENDTAB
  0
TABLE
  2
STYLE
  70
4
  0
STYLE
  2
KICAD
  70
0
  40
0
  41
1
  42
1
  50
0
  71
0
  3
isocp.shx
  0
STYLE
  2
KICADB
  70
0
  40
0
  41
1
  42
1
  50
0
  71
0
  3
isocp.shx
  0
STYLE
  2
KICADI
  70
0
  40
0
  41
1
  42
1
  50
15
  71
0
  3
isocp.shx
  0
STYLE
  2
KICADBI
  70
0
  40
0
  41
1
  42
1
  50
15
  71
0
  3
isocp.shx
  0
ENDTAB
  0
TABLE
  2
LAYER
  70
1
  0
LAYER
  2
BLACK
  70
0
  62
7
  6
CONTINUOUS
  0
ENDTAB
  0
ENDSEC
  0
SECTION
  2
ENTITIES
0
LINE
8
BLACK
6
CONTINUOUS
10
5.6508398425196846
20
-3.9151890157480316
11
5.6555042913385822
21
-3.9175656692913385
0
LINE
8
BLACK
6
CONTINUOUS
10
5.6555042913385822
20
-3.9175656692913385
11
5.659205984251968
21
-3.9212673622047243
0
LINE
8
BLACK
6
CONTINUOUS
10
5.659205984251968
20
-3.9212673622047243
11
5.6615826377952754
21
-3.9259318110236219
0
LINE
8
BLACK
6
CONTINUOUS
10
5.6615826377952754
20
-3.9259318110236219
11
5.6624015748031491
21
-3.9311023622047245
0
LINE
8
BLACK
6
CONTINUOUS
10
5.6624015748031491
20
-3.9311023622047245
11
5.6615826377952754
21
-3.9362729133858267
0
LINE
8
BLACK
6
CONTINUOUS
10
5.6615826377952754
20
-3.9362729133858267
11
5.659205984251968
21
-3.9409373622047243
0
LINE
8
BLACK
6
CONTINUOUS
10
5.659205984251968
20
-3.9409373622047243
11
5.6555042913385822
21
-3.9446390551181101
0
LINE
8
BLACK
6
CONTINUOUS
10
5.6555042913385822
20
-3.9446390551181101
11
5.6508398425196846
21
-3.947015708661417
0
LINE
8
BLACK
6
CONTINUOUS
10
5.6508398425196846
20
-3.947015708661417
11
5.6456692913385824
21
-3.9478346456692912
0
LINE
8
BLACK
6
CONTINUOUS
10
5.6456692913385824
20
-3.9478346456692912
11
5.6404987401574802
21
-3.947015708661417
0
LINE
8
BLACK
6
CONTINUOUS
10
5.6404987401574802
20
-3.947015708661417
11
5.6358342913385826
21
-3.9446390551181101
0
LINE
8
BLACK
6
CONTINUOUS
10
5.6358342913385826
20
-3.9446390551181101
11
5.6321325984251969
21
-3.9409373622047243
0
LINE
8
BLACK
6
CONTINUOUS
10
5.6321325984251969
20
-3.9409373622047243
11
5.6297559448818895
21
-3.9362729133858267
0
LINE
8
BLACK
6
CONTINUOUS
10
5.6297559448818895
20
-3.9362729133858267
11
5.6289370078740157
21
-3.9311023622047245
0
LINE
8
BLACK
6
CONTINUOUS
10
5.6289370078740157
20
-3.9311023622047245
11
5.6297559448818895
21
-3.9259318110236219
0
LINE
8
BLACK
6
CONTINUOUS
10
5.6297559448818895
20
-3.9259318110236219
11
5.6321325984251969
21
-3.9212673622047243
0
LINE
8
BLACK
6
CONTINUOUS
10
5.6321325984251969
20
-3.9212673622047243
11
5.6358342913385826
21
-3.9175656692913385
0
LINE
8
BLACK
6
CONTINUOUS
10
5.6358342913385826
20
-3.9175656692913385
11
5.6404987401574802
21
-3.9151890157480316
0
LINE
8
BLACK
6
CONTINUOUS
10
5.6404987401574802
20
-3.9151890157480316
11
5.6456692913385824
21
-3.9143700787401574
0
LINE
8
BLACK
6
CONTINUOUS
10
5.6456692913385824
20
-3.9143700787401574
11
5.6508398425196846
21
-3.9151890157480316
0
LINE
8
BLACK
6
CONTINUOUS
10
5.6508398425196846
20
-3.8758189370078737
11
5.6555042913385822
21
-3.8781955905511811
0
LINE
8
BLACK
6
CONTINUOUS
10
5.6555042913385822
20
-3.8781955905511811
11
5.659205984251968
21
-3.8818972834645669
0
LINE
8
BLACK
6
CONTINUOUS
10
5.659205984251968
20
-3.8818972834645669
11
5.6615826377952754
21
-3.8865617322834645
0
LINE
8
BLACK
6
CONTINUOUS
10
5.6615826377952754
20
-3.8865617322834645
11
5.6624015748031491
21
-3.8917322834645667
0
LINE
8
BLACK
6
CONTINUOUS
10
5.6624015748031491
20
-3.8917322834645667
11
5.6615826377952754
21
-3.8969028346456693
0
LINE
8
BLACK
6
CONTINUOUS
10
5.6615826377952754
20
-3.8969028346456693
11
5.659205984251968
21
-3.9015672834645669
0
LINE
8
BLACK
6
CONTINUOUS
10
5.659205984251968
20
-3.9015672834645669
11
5.6555042913385822
21
-3.9052689763779527
0
LINE
8
BLACK
6
CONTINUOUS
10
5.6555042913385822
20
-3.9052689763779527
11
5.6508398425196846
21
-3.9076456299212596
0
LINE
8
BLACK
6
CONTINUOUS
10
5.6508398425196846
20
-3.9076456299212596
11
5.6456692913385824
21
-3.9084645669291338
0
LINE
8
BLACK
6
CONTINUOUS
10
5.6456692913385824
20
-3.9084645669291338
11
5.6404987401574802
21
-3.9076456299212596
0
LINE
8
BLACK
6
CONTINUOUS
10
5.6404987401574802
20
-3.9076456299212596
11
5.6358342913385826
21
-3.9052689763779527
0
LINE
8
BLACK
6
CONTINUOUS
10
5.6358342913385826
20
-3.9052689763779527
11
5.6321325984251969
21
-3.9015672834645669
0
LINE
8
BLACK
6
CONTINUOUS
10
5.6321325984251969
20
-3.9015672834645669
11
5.6297559448818895
21
-3.8969028346456693
0
LINE
8
BLACK
6
CONTINUOUS
10
5.6297559448818895
20
-3.8969028346456693
11
5.6289370078740157
21
-3.8917322834645667
0
LINE
8
BLACK
6
CONTINUOUS
10
5.6289370078740157
20
-3.8917322834645667
11
5.6297559448818895
21
-3.8865617322834645
0
LINE
8
BLACK
6
CONTINUOUS
10
5.6297559448818895
20
-3.8865617322834645
11
5.6321325984251969
21
-3.8818972834645669
0
LINE
8
BLACK
6
CONTINUOUS
10
5.6321325984251969
20
-3.8818972834645669
11
5.6358342913385826
21
-3.8781955905511811
0
LINE
8
BLACK
6
CONTINUOUS
10
5.6358342913385826
20
-3.8781955905511811
11
5.6404987401574802
21
-3.8758189370078737
0
LINE
8
BLACK
6
CONTINUOUS
10
5.6404987401574802
20
-3.8758189370078737
11
5.6456692913385824
21
-3.875
0
LINE
8
BLACK
6
CONTINUOUS
10
5.6456692913385824
20
-3.875
11
5.6508398425196846
21
-3.8758189370078737
0
LINE
8
BLACK
6
CONTINUOUS
10
5.6624015748031491
20
-3.8690944881889764
11
5.6289370078740157
21
-3.8690944881889764
0
LINE
8
BLACK
6
CONTINUOUS
10
5.6289370078740157
20
-3.8690944881889764
11
5.6289370078740157
21
-3.8356299212598426
0
LINE
8
BLACK
6
CONTINUOUS
10
5.6289370078740157
20
-3.8356299212598426
11
5.6624015748031491
21
-3.8356299212598426
0
LINE
8
BLACK
6
CONTINUOUS
10
5.6624015748031491
20
-3.8356299212598426
11
5.6624015748031491
21
-3.8690944881889764
  0
ENDSEC
  0
EOF
