  0
SECTION
  2
HEADER
  9
$ANGBASE
  50
0.0
  9
$ANGDIR
  70
1
  9
$MEASUREMENT
  70
0
  0
ENDSEC
  0
SECTION
  2
TABLES
  0
TABLE
  2
LTYPE
  70
4
  0
LTYPE
  5
40F
  2
CONTINUOUS
  70
0
  3
Solid line
  72
65
  73
0
  40
0.0
  0
LTYPE
  5
410
  2
DASHDOT
 70
0
  3
Dash Dot ____ _ ____ _
 72
65
 73
4
 40
2.0
 49
1.25
 49
-0.25
 49
0.25
 49
-0.25
  0
LTYPE
  5
411
  2
DASHED
 70
0
  3
Dashed __ __ __ __ __
 72
65
 73
2
 40
0.75
 49
0.5
 49
-0.25
  0
LTYPE
  5
43B
  2
DOTTED
 70
0
  3
Dotted .  .  .  .
 72
65
 73
2
 40
0.2
 49
0.0
 49
-0.2
  0
ENDTAB
  0
TABLE
  2
STYLE
  70
4
  0
STYLE
  2
KICAD
  70
0
  40
0
  41
1
  42
1
  50
0
  71
0
  3
isocp.shx
  0
STYLE
  2
KICADB
  70
0
  40
0
  41
1
  42
1
  50
0
  71
0
  3
isocp.shx
  0
STYLE
  2
KICADI
  70
0
  40
0
  41
1
  42
1
  50
15
  71
0
  3
isocp.shx
  0
STYLE
  2
KICADBI
  70
0
  40
0
  41
1
  42
1
  50
15
  71
0
  3
isocp.shx
  0
ENDTAB
  0
TABLE
  2
LAYER
  70
1
  0
LAYER
  2
BLACK
  70
0
  62
7
  6
CONTINUOUS
  0
ENDTAB
  0
ENDSEC
  0
SECTION
  2
ENTITIES
0
LINE
8
BLACK
6
CONTINUOUS
10
5.6508398425196846
20
-3.8758189370078737
11
5.6555042913385822
21
-3.8781955905511811
0
LINE
8
BLACK
6
CONTINUOUS
10
5.6555042913385822
20
-3.8781955905511811
11
5.659205984251968
21
-3.8818972834645669
0
LINE
8
BLACK
6
CONTINUOUS
10
5.659205984251968
20
-3.8818972834645669
11
5.6615826377952754
21
-3.8865617322834645
0
LINE
8
BLACK
6
CONTINUOUS
10
5.6615826377952754
20
-3.8865617322834645
11
5.6624015748031491
21
-3.8917322834645667
0
LINE
8
BLACK
6
CONTINUOUS
10
5.6624015748031491
20
-3.8917322834645667
11
5.6615826377952754
21
-3.8969028346456693
0
LINE
8
BLACK
6
CONTINUOUS
10
5.6615826377952754
20
-3.8969028346456693
11
5.659205984251968
21
-3.9015672834645669
0
LINE
8
BLACK
6
CONTINUOUS
10
5.659205984251968
20
-3.9015672834645669
11
5.6555042913385822
21
-3.9052689763779527
0
LINE
8
BLACK
6
CONTINUOUS
10
5.6555042913385822
20
-3.9052689763779527
11
5.6508398425196846
21
-3.9076456299212596
0
LINE
8
BLACK
6
CONTINUOUS
10
5.6508398425196846
20
-3.9076456299212596
11
5.6456692913385824
21
-3.9084645669291338
0
LINE
8
BLACK
6
CONTINUOUS
10
5.6456692913385824
20
-3.9084645669291338
11
5.6404987401574802
21
-3.9076456299212596
0
LINE
8
BLACK
6
CONTINUOUS
10
5.6404987401574802
20
-3.9076456299212596
11
5.6358342913385826
21
-3.9052689763779527
0
LINE
8
BLACK
6
CONTINUOUS
10
5.6358342913385826
20
-3.9052689763779527
11
5.6321325984251969
21
-3.9015672834645669
0
LINE
8
BLACK
6
CONTINUOUS
10
5.6321325984251969
20
-3.9015672834645669
11
5.6297559448818895
21
-3.8969028346456693
0
LINE
8
BLACK
6
CONTINUOUS
10
5.6297559448818895
20
-3.8969028346456693
11
5.6295605511811022
21
-3.8956692913385824
0
LINE
8
BLACK
6
CONTINUOUS
10
5.6295605511811022
20
-3.8956692913385824
11
5.4431661811023622
21
-3.8956692913385824
0
LINE
8
BLACK
6
CONTINUOUS
10
5.4431661811023622
20
-3.8956692913385824
11
5.3964566929133859
21
-3.9423787795275591
0
LINE
8
BLACK
6
CONTINUOUS
10
5.3964566929133859
20
-3.9423787795275591
11
5.3964566929133859
21
-3.9678149606299211
0
LINE
8
BLACK
6
CONTINUOUS
10
5.3964566929133859
20
-3.9678149606299211
11
5.3958947637795278
21
-3.9706398818897637
0
LINE
8
BLACK
6
CONTINUOUS
10
5.3958947637795278
20
-3.9706398818897637
11
5.3942946062992121
21
-3.9730347637795274
0
LINE
8
BLACK
6
CONTINUOUS
10
5.3942946062992121
20
-3.9730347637795274
11
5.3918997244094484
21
-3.9746349212598426
0
LINE
8
BLACK
6
CONTINUOUS
10
5.3918997244094484
20
-3.9746349212598426
11
5.3890748031496063
21
-3.9751968503937007
0
LINE
8
BLACK
6
CONTINUOUS
10
5.3890748031496063
20
-3.9751968503937007
11
5.374311023622047
21
-3.9751968503937007
0
LINE
8
BLACK
6
CONTINUOUS
10
5.374311023622047
20
-3.9751968503937007
11
5.3714861023622049
21
-3.9746349212598426
0
LINE
8
BLACK
6
CONTINUOUS
10
5.3714861023622049
20
-3.9746349212598426
11
5.3690912204724413
21
-3.9730347637795274
0
LINE
8
BLACK
6
CONTINUOUS
10
5.3690912204724413
20
-3.9730347637795274
11
5.3674910629921255
21
-3.9706398818897637
0
LINE
8
BLACK
6
CONTINUOUS
10
5.3674910629921255
20
-3.9706398818897637
11
5.3669291338582674
21
-3.9678149606299211
0
LINE
8
BLACK
6
CONTINUOUS
10
5.3669291338582674
20
-3.9678149606299211
11
5.3669291338582674
21
-3.935334645669291
0
LINE
8
BLACK
6
CONTINUOUS
10
5.3669291338582674
20
-3.935334645669291
11
5.3674910629921255
21
-3.9325097244094489
0
LINE
8
BLACK
6
CONTINUOUS
10
5.3674910629921255
20
-3.9325097244094489
11
5.3690912204724413
21
-3.9301148425196848
0
LINE
8
BLACK
6
CONTINUOUS
10
5.3690912204724413
20
-3.9301148425196848
11
5.3714861023622049
21
-3.92851468503937
0
LINE
8
BLACK
6
CONTINUOUS
10
5.3714861023622049
20
-3.92851468503937
11
5.374311023622047
21
-3.9279527559055119
0
LINE
8
BLACK
6
CONTINUOUS
10
5.374311023622047
20
-3.9279527559055119
11
5.3890748031496063
21
-3.9279527559055119
0
LINE
8
BLACK
6
CONTINUOUS
10
5.3890748031496063
20
-3.9279527559055119
11
5.3918997244094484
21
-3.92851468503937
0
LINE
8
BLACK
6
CONTINUOUS
10
5.3918997244094484
20
-3.92851468503937
11
5.3942946062992121
21
-3.9301148425196848
0
LINE
8
BLACK
6
CONTINUOUS
10
5.3942946062992121
20
-3.9301148425196848
11
5.3956125590551176
21
-3.9320873622047241
0
LINE
8
BLACK
6
CONTINUOUS
10
5.3956125590551176
20
-3.9320873622047241
11
5.4387515748031499
21
-3.8889483858267715
0
LINE
8
BLACK
6
CONTINUOUS
10
5.4387515748031499
20
-3.8889483858267715
11
5.4393481496062988
21
-3.8884587401574802
0
LINE
8
BLACK
6
CONTINUOUS
10
5.4393481496062988
20
-3.8884587401574802
11
5.4407673622047241
21
-3.8878709055118108
0
LINE
8
BLACK
6
CONTINUOUS
10
5.4407673622047241
20
-3.8878709055118108
11
5.4415354330708663
21
-3.8877952755905509
0
LINE
8
BLACK
6
CONTINUOUS
10
5.4415354330708663
20
-3.8877952755905509
11
5.6295605511811022
21
-3.8877952755905509
0
LINE
8
BLACK
6
CONTINUOUS
10
5.6295605511811022
20
-3.8877952755905509
11
5.6297559448818895
21
-3.8865617322834645
0
LINE
8
BLACK
6
CONTINUOUS
10
5.6297559448818895
20
-3.8865617322834645
11
5.6321325984251969
21
-3.8818972834645669
0
LINE
8
BLACK
6
CONTINUOUS
10
5.6321325984251969
20
-3.8818972834645669
11
5.6358342913385826
21
-3.8781955905511811
0
LINE
8
BLACK
6
CONTINUOUS
10
5.6358342913385826
20
-3.8781955905511811
11
5.6404987401574802
21
-3.8758189370078737
0
LINE
8
BLACK
6
CONTINUOUS
10
5.6404987401574802
20
-3.8758189370078737
11
5.6456692913385824
21
-3.875
0
LINE
8
BLACK
6
CONTINUOUS
10
5.6456692913385824
20
-3.875
11
5.6508398425196846
21
-3.8758189370078737
0
LINE
8
BLACK
6
CONTINUOUS
10
5.6267523228346459
20
-3.9095244488188974
11
5.6281715354330704
21
-3.9101123228346455
0
LINE
8
BLACK
6
CONTINUOUS
10
5.6281715354330704
20
-3.9101123228346455
11
5.6287681496062989
21
-3.9106019291338581
0
LINE
8
BLACK
6
CONTINUOUS
10
5.6287681496062989
20
-3.9106019291338581
11
5.6357830708661414
21
-3.9176168503937006
0
LINE
8
BLACK
6
CONTINUOUS
10
5.6357830708661414
20
-3.9176168503937006
11
5.6358342913385826
21
-3.9175656692913385
0
LINE
8
BLACK
6
CONTINUOUS
10
5.6358342913385826
20
-3.9175656692913385
11
5.6404987401574802
21
-3.9151890157480316
0
LINE
8
BLACK
6
CONTINUOUS
10
5.6404987401574802
20
-3.9151890157480316
11
5.6456692913385824
21
-3.9143700787401574
0
LINE
8
BLACK
6
CONTINUOUS
10
5.6456692913385824
20
-3.9143700787401574
11
5.6508398425196846
21
-3.9151890157480316
0
LINE
8
BLACK
6
CONTINUOUS
10
5.6508398425196846
20
-3.9151890157480316
11
5.6555042913385822
21
-3.9175656692913385
0
LINE
8
BLACK
6
CONTINUOUS
10
5.6555042913385822
20
-3.9175656692913385
11
5.659205984251968
21
-3.9212673622047243
0
LINE
8
BLACK
6
CONTINUOUS
10
5.659205984251968
20
-3.9212673622047243
11
5.6615826377952754
21
-3.9259318110236219
0
LINE
8
BLACK
6
CONTINUOUS
10
5.6615826377952754
20
-3.9259318110236219
11
5.6624015748031491
21
-3.9311023622047245
0
LINE
8
BLACK
6
CONTINUOUS
10
5.6624015748031491
20
-3.9311023622047245
11
5.6615826377952754
21
-3.9362729133858267
0
LINE
8
BLACK
6
CONTINUOUS
10
5.6615826377952754
20
-3.9362729133858267
11
5.659205984251968
21
-3.9409373622047243
0
LINE
8
BLACK
6
CONTINUOUS
10
5.659205984251968
20
-3.9409373622047243
11
5.6555042913385822
21
-3.9446390551181101
0
LINE
8
BLACK
6
CONTINUOUS
10
5.6555042913385822
20
-3.9446390551181101
11
5.6508398425196846
21
-3.947015708661417
0
LINE
8
BLACK
6
CONTINUOUS
10
5.6508398425196846
20
-3.947015708661417
11
5.6456692913385824
21
-3.9478346456692912
0
LINE
8
BLACK
6
CONTINUOUS
10
5.6456692913385824
20
-3.9478346456692912
11
5.6404987401574802
21
-3.947015708661417
0
LINE
8
BLACK
6
CONTINUOUS
10
5.6404987401574802
20
-3.947015708661417
11
5.6358342913385826
21
-3.9446390551181101
0
LINE
8
BLACK
6
CONTINUOUS
10
5.6358342913385826
20
-3.9446390551181101
11
5.6321325984251969
21
-3.9409373622047243
0
LINE
8
BLACK
6
CONTINUOUS
10
5.6321325984251969
20
-3.9409373622047243
11
5.6297559448818895
21
-3.9362729133858267
0
LINE
8
BLACK
6
CONTINUOUS
10
5.6297559448818895
20
-3.9362729133858267
11
5.6289370078740157
21
-3.9311023622047245
0
LINE
8
BLACK
6
CONTINUOUS
10
5.6289370078740157
20
-3.9311023622047245
11
5.6297559448818895
21
-3.9259318110236219
0
LINE
8
BLACK
6
CONTINUOUS
10
5.6297559448818895
20
-3.9259318110236219
11
5.6308382283464562
21
-3.9238075984251966
0
LINE
8
BLACK
6
CONTINUOUS
10
5.6308382283464562
20
-3.9238075984251966
11
5.6243534645669291
21
-3.917322834645669
0
LINE
8
BLACK
6
CONTINUOUS
10
5.6243534645669291
20
-3.917322834645669
11
5.4569457480314956
21
-3.917322834645669
0
LINE
8
BLACK
6
CONTINUOUS
10
5.4569457480314956
20
-3.917322834645669
11
5.4463158267716532
21
-3.9279527559055119
0
LINE
8
BLACK
6
CONTINUOUS
10
5.4463158267716532
20
-3.9279527559055119
11
5.4481299212598424
21
-3.9279527559055119
0
LINE
8
BLACK
6
CONTINUOUS
10
5.4481299212598424
20
-3.9279527559055119
11
5.4509548425196845
21
-3.92851468503937
0
LINE
8
BLACK
6
CONTINUOUS
10
5.4509548425196845
20
-3.92851468503937
11
5.4533497244094491
21
-3.9301148425196848
0
LINE
8
BLACK
6
CONTINUOUS
10
5.4533497244094491
20
-3.9301148425196848
11
5.4549498818897639
21
-3.9325097244094489
0
LINE
8
BLACK
6
CONTINUOUS
10
5.4549498818897639
20
-3.9325097244094489
11
5.455511811023622
21
-3.935334645669291
0
LINE
8
BLACK
6
CONTINUOUS
10
5.455511811023622
20
-3.935334645669291
11
5.455511811023622
21
-3.9678149606299211
0
LINE
8
BLACK
6
CONTINUOUS
10
5.455511811023622
20
-3.9678149606299211
11
5.4549498818897639
21
-3.9706398818897637
0
LINE
8
BLACK
6
CONTINUOUS
10
5.4549498818897639
20
-3.9706398818897637
11
5.4533497244094491
21
-3.9730347637795274
0
LINE
8
BLACK
6
CONTINUOUS
10
5.4533497244094491
20
-3.9730347637795274
11
5.4509548425196845
21
-3.9746349212598426
0
LINE
8
BLACK
6
CONTINUOUS
10
5.4509548425196845
20
-3.9746349212598426
11
5.4481299212598424
21
-3.9751968503937007
0
LINE
8
BLACK
6
CONTINUOUS
10
5.4481299212598424
20
-3.9751968503937007
11
5.4333661417322832
21
-3.9751968503937007
0
LINE
8
BLACK
6
CONTINUOUS
10
5.4333661417322832
20
-3.9751968503937007
11
5.430541220472441
21
-3.9746349212598426
0
LINE
8
BLACK
6
CONTINUOUS
10
5.430541220472441
20
-3.9746349212598426
11
5.4281463385826774
21
-3.9730347637795274
0
LINE
8
BLACK
6
CONTINUOUS
10
5.4281463385826774
20
-3.9730347637795274
11
5.4265461811023616
21
-3.9706398818897637
0
LINE
8
BLACK
6
CONTINUOUS
10
5.4265461811023616
20
-3.9706398818897637
11
5.4259842519685035
21
-3.9678149606299211
0
LINE
8
BLACK
6
CONTINUOUS
10
5.4259842519685035
20
-3.9678149606299211
11
5.4259842519685035
21
-3.935334645669291
0
LINE
8
BLACK
6
CONTINUOUS
10
5.4259842519685035
20
-3.935334645669291
11
5.4265461811023616
21
-3.9325097244094489
0
LINE
8
BLACK
6
CONTINUOUS
10
5.4265461811023616
20
-3.9325097244094489
11
5.4281463385826774
21
-3.9301148425196848
0
LINE
8
BLACK
6
CONTINUOUS
10
5.4281463385826774
20
-3.9301148425196848
11
5.430541220472441
21
-3.92851468503937
0
LINE
8
BLACK
6
CONTINUOUS
10
5.430541220472441
20
-3.92851468503937
11
5.4333661417322832
21
-3.9279527559055119
0
LINE
8
BLACK
6
CONTINUOUS
10
5.4333661417322832
20
-3.9279527559055119
11
5.436811023622047
21
-3.9279527559055119
0
LINE
8
BLACK
6
CONTINUOUS
10
5.436811023622047
20
-3.9279527559055119
11
5.4368866535433069
21
-3.9271846850393701
0
LINE
8
BLACK
6
CONTINUOUS
10
5.4368866535433069
20
-3.9271846850393701
11
5.437474527559055
21
-3.9257654724409448
0
LINE
8
BLACK
6
CONTINUOUS
10
5.437474527559055
20
-3.9257654724409448
11
5.4379641338582676
21
-3.9251688582677167
0
LINE
8
BLACK
6
CONTINUOUS
10
5.4379641338582676
20
-3.9251688582677167
11
5.4525310629921258
21
-3.9106019291338581
0
LINE
8
BLACK
6
CONTINUOUS
10
5.4525310629921258
20
-3.9106019291338581
11
5.4531276771653543
21
-3.9101123228346455
0
LINE
8
BLACK
6
CONTINUOUS
10
5.4531276771653543
20
-3.9101123228346455
11
5.4545468897637797
21
-3.9095244488188974
0
LINE
8
BLACK
6
CONTINUOUS
10
5.4545468897637797
20
-3.9095244488188974
11
5.4553149606299209
21
-3.9094488188976375
0
LINE
8
BLACK
6
CONTINUOUS
10
5.4553149606299209
20
-3.9094488188976375
11
5.6259842519685037
21
-3.9094488188976375
0
LINE
8
BLACK
6
CONTINUOUS
10
5.6259842519685037
20
-3.9094488188976375
11
5.6267523228346459
21
-3.9095244488188974
0
LINE
8
BLACK
6
CONTINUOUS
10
5.4509548425196845
20
-3.806467440944882
11
5.4533497244094491
21
-3.8080675984251968
0
LINE
8
BLACK
6
CONTINUOUS
10
5.4533497244094491
20
-3.8080675984251968
11
5.4549498818897639
21
-3.8104624803149605
0
LINE
8
BLACK
6
CONTINUOUS
10
5.4549498818897639
20
-3.8104624803149605
11
5.455511811023622
21
-3.8132874015748031
0
LINE
8
BLACK
6
CONTINUOUS
10
5.455511811023622
20
-3.8132874015748031
11
5.455511811023622
21
-3.8457677165354331
0
LINE
8
BLACK
6
CONTINUOUS
10
5.455511811023622
20
-3.8457677165354331
11
5.4549498818897639
21
-3.8485926377952757
0
LINE
8
BLACK
6
CONTINUOUS
10
5.4549498818897639
20
-3.8485926377952757
11
5.4533497244094491
21
-3.8509875196850394
0
LINE
8
BLACK
6
CONTINUOUS
10
5.4533497244094491
20
-3.8509875196850394
11
5.4509548425196845
21
-3.8525876771653542
0
LINE
8
BLACK
6
CONTINUOUS
10
5.4509548425196845
20
-3.8525876771653542
11
5.4481299212598424
21
-3.8531496062992123
0
LINE
8
BLACK
6
CONTINUOUS
10
5.4481299212598424
20
-3.8531496062992123
11
5.4463158267716532
21
-3.8531496062992123
0
LINE
8
BLACK
6
CONTINUOUS
10
5.4463158267716532
20
-3.8531496062992123
11
5.4553709055118107
21
-3.8622047244094486
0
LINE
8
BLACK
6
CONTINUOUS
10
5.4553709055118107
20
-3.8622047244094486
11
5.6289370078740157
21
-3.8622047244094486
0
LINE
8
BLACK
6
CONTINUOUS
10
5.6289370078740157
20
-3.8622047244094486
11
5.6289370078740157
21
-3.8356299212598426
0
LINE
8
BLACK
6
CONTINUOUS
10
5.6289370078740157
20
-3.8356299212598426
11
5.6624015748031491
21
-3.8356299212598426
0
LINE
8
BLACK
6
CONTINUOUS
10
5.6624015748031491
20
-3.8356299212598426
11
5.6624015748031491
21
-3.8690944881889764
0
LINE
8
BLACK
6
CONTINUOUS
10
5.6624015748031491
20
-3.8690944881889764
11
5.6344679133858264
21
-3.8690944881889764
0
LINE
8
BLACK
6
CONTINUOUS
10
5.6344679133858264
20
-3.8690944881889764
11
5.6340770472440944
21
-3.8694152362204726
0
LINE
8
BLACK
6
CONTINUOUS
10
5.6340770472440944
20
-3.8694152362204726
11
5.632657834645669
21
-3.8700031102362202
0
LINE
8
BLACK
6
CONTINUOUS
10
5.632657834645669
20
-3.8700031102362202
11
5.6318897637795278
21
-3.8700787401574801
0
LINE
8
BLACK
6
CONTINUOUS
10
5.6318897637795278
20
-3.8700787401574801
11
5.4537401574803148
21
-3.8700787401574801
0
LINE
8
BLACK
6
CONTINUOUS
10
5.4537401574803148
20
-3.8700787401574801
11
5.4529720866141735
21
-3.8700031102362202
0
LINE
8
BLACK
6
CONTINUOUS
10
5.4529720866141735
20
-3.8700031102362202
11
5.4519685039370076
21
-3.8695874015748029
0
LINE
8
BLACK
6
CONTINUOUS
10
5.4519685039370076
20
-3.8695874015748029
11
5.4515528346456694
21
-3.8694152362204726
0
LINE
8
BLACK
6
CONTINUOUS
10
5.4515528346456694
20
-3.8694152362204726
11
5.4509562598425196
21
-3.8689255905511808
0
LINE
8
BLACK
6
CONTINUOUS
10
5.4509562598425196
20
-3.8689255905511808
11
5.4379641338582676
21
-3.855933503937008
0
LINE
8
BLACK
6
CONTINUOUS
10
5.4379641338582676
20
-3.855933503937008
11
5.437474527559055
21
-3.8553368897637794
0
LINE
8
BLACK
6
CONTINUOUS
10
5.437474527559055
20
-3.8553368897637794
11
5.4368866535433069
21
-3.853917677165354
0
LINE
8
BLACK
6
CONTINUOUS
10
5.4368866535433069
20
-3.853917677165354
11
5.436811023622047
21
-3.8531496062992123
0
LINE
8
BLACK
6
CONTINUOUS
10
5.436811023622047
20
-3.8531496062992123
11
5.4333661417322832
21
-3.8531496062992123
0
LINE
8
BLACK
6
CONTINUOUS
10
5.4333661417322832
20
-3.8531496062992123
11
5.430541220472441
21
-3.8525876771653542
0
LINE
8
BLACK
6
CONTINUOUS
10
5.430541220472441
20
-3.8525876771653542
11
5.4281463385826774
21
-3.8509875196850394
0
LINE
8
BLACK
6
CONTINUOUS
10
5.4281463385826774
20
-3.8509875196850394
11
5.4265461811023616
21
-3.8485926377952757
0
LINE
8
BLACK
6
CONTINUOUS
10
5.4265461811023616
20
-3.8485926377952757
11
5.4259842519685035
21
-3.8457677165354331
0
LINE
8
BLACK
6
CONTINUOUS
10
5.4259842519685035
20
-3.8457677165354331
11
5.4259842519685035
21
-3.8132874015748031
0
LINE
8
BLACK
6
CONTINUOUS
10
5.4259842519685035
20
-3.8132874015748031
11
5.4265461811023616
21
-3.8104624803149605
0
LINE
8
BLACK
6
CONTINUOUS
10
5.4265461811023616
20
-3.8104624803149605
11
5.4281463385826774
21
-3.8080675984251968
0
LINE
8
BLACK
6
CONTINUOUS
10
5.4281463385826774
20
-3.8080675984251968
11
5.430541220472441
21
-3.806467440944882
0
LINE
8
BLACK
6
CONTINUOUS
10
5.430541220472441
20
-3.806467440944882
11
5.4333661417322832
21
-3.8059055118110234
0
LINE
8
BLACK
6
CONTINUOUS
10
5.4333661417322832
20
-3.8059055118110234
11
5.4481299212598424
21
-3.8059055118110234
0
LINE
8
BLACK
6
CONTINUOUS
10
5.4481299212598424
20
-3.8059055118110234
11
5.4509548425196845
21
-3.806467440944882
0
LINE
8
BLACK
6
CONTINUOUS
10
5.3918997244094484
20
-3.806467440944882
11
5.3942946062992121
21
-3.8080675984251968
0
LINE
8
BLACK
6
CONTINUOUS
10
5.3942946062992121
20
-3.8080675984251968
11
5.3958947637795278
21
-3.8104624803149605
0
LINE
8
BLACK
6
CONTINUOUS
10
5.3958947637795278
20
-3.8104624803149605
11
5.3964566929133859
21
-3.8132874015748031
0
LINE
8
BLACK
6
CONTINUOUS
10
5.3964566929133859
20
-3.8132874015748031
11
5.3964566929133859
21
-3.8457677165354331
0
LINE
8
BLACK
6
CONTINUOUS
10
5.3964566929133859
20
-3.8457677165354331
11
5.3958947637795278
21
-3.8485926377952757
0
LINE
8
BLACK
6
CONTINUOUS
10
5.3958947637795278
20
-3.8485926377952757
11
5.3942946062992121
21
-3.8509875196850394
0
LINE
8
BLACK
6
CONTINUOUS
10
5.3942946062992121
20
-3.8509875196850394
11
5.3918997244094484
21
-3.8525876771653542
0
LINE
8
BLACK
6
CONTINUOUS
10
5.3918997244094484
20
-3.8525876771653542
11
5.3890748031496063
21
-3.8531496062992123
0
LINE
8
BLACK
6
CONTINUOUS
10
5.3890748031496063
20
-3.8531496062992123
11
5.374311023622047
21
-3.8531496062992123
0
LINE
8
BLACK
6
CONTINUOUS
10
5.374311023622047
20
-3.8531496062992123
11
5.3714861023622049
21
-3.8525876771653542
0
LINE
8
BLACK
6
CONTINUOUS
10
5.3714861023622049
20
-3.8525876771653542
11
5.3690912204724413
21
-3.8509875196850394
0
LINE
8
BLACK
6
CONTINUOUS
10
5.3690912204724413
20
-3.8509875196850394
11
5.3674910629921255
21
-3.8485926377952757
0
LINE
8
BLACK
6
CONTINUOUS
10
5.3674910629921255
20
-3.8485926377952757
11
5.3669291338582674
21
-3.8457677165354331
0
LINE
8
BLACK
6
CONTINUOUS
10
5.3669291338582674
20
-3.8457677165354331
11
5.3669291338582674
21
-3.8132874015748031
0
LINE
8
BLACK
6
CONTINUOUS
10
5.3669291338582674
20
-3.8132874015748031
11
5.3674910629921255
21
-3.8104624803149605
0
LINE
8
BLACK
6
CONTINUOUS
10
5.3674910629921255
20
-3.8104624803149605
11
5.3690912204724413
21
-3.8080675984251968
0
LINE
8
BLACK
6
CONTINUOUS
10
5.3690912204724413
20
-3.8080675984251968
11
5.3714861023622049
21
-3.806467440944882
0
LINE
8
BLACK
6
CONTINUOUS
10
5.3714861023622049
20
-3.806467440944882
11
5.374311023622047
21
-3.8059055118110234
0
LINE
8
BLACK
6
CONTINUOUS
10
5.374311023622047
20
-3.8059055118110234
11
5.3890748031496063
21
-3.8059055118110234
0
LINE
8
BLACK
6
CONTINUOUS
10
5.3890748031496063
20
-3.8059055118110234
11
5.3918997244094484
21
-3.806467440944882
  0
ENDSEC
  0
EOF
