%TF.GenerationSoftware,KiCad,Pcbnew,8.0.7-8.0.7-0~ubuntu24.04.1*%
%TF.CreationDate,2025-01-28T12:27:13-05:00*%
%TF.ProjectId,optode-alex,6f70746f-6465-42d6-916c-65782e6b6963,rev?*%
%TF.SameCoordinates,Original*%
%TF.FileFunction,Legend,Bot*%
%TF.FilePolarity,Positive*%
%FSLAX46Y46*%
G04 Gerber Fmt 4.6, Leading zero omitted, Abs format (unit mm)*
G04 Created by KiCad (PCBNEW 8.0.7-8.0.7-0~ubuntu24.04.1) date 2025-01-28 12:27:13*
%MOMM*%
%LPD*%
G01*
G04 APERTURE LIST*
%ADD10C,0.127000*%
%ADD11C,0.100000*%
G04 APERTURE END LIST*
D10*
X141822924Y-98585362D02*
X141822924Y-97772562D01*
X141822924Y-97772562D02*
X141358467Y-98585362D01*
X141358467Y-98585362D02*
X141358467Y-97772562D01*
X140971419Y-98585362D02*
X140971419Y-97772562D01*
X140971419Y-97772562D02*
X140506962Y-98585362D01*
X140506962Y-98585362D02*
X140506962Y-97772562D01*
X139539342Y-98546658D02*
X139423228Y-98585362D01*
X139423228Y-98585362D02*
X139229704Y-98585362D01*
X139229704Y-98585362D02*
X139152295Y-98546658D01*
X139152295Y-98546658D02*
X139113590Y-98507953D01*
X139113590Y-98507953D02*
X139074885Y-98430543D01*
X139074885Y-98430543D02*
X139074885Y-98353134D01*
X139074885Y-98353134D02*
X139113590Y-98275724D01*
X139113590Y-98275724D02*
X139152295Y-98237019D01*
X139152295Y-98237019D02*
X139229704Y-98198315D01*
X139229704Y-98198315D02*
X139384523Y-98159610D01*
X139384523Y-98159610D02*
X139461933Y-98120905D01*
X139461933Y-98120905D02*
X139500638Y-98082200D01*
X139500638Y-98082200D02*
X139539342Y-98004791D01*
X139539342Y-98004791D02*
X139539342Y-97927381D01*
X139539342Y-97927381D02*
X139500638Y-97849972D01*
X139500638Y-97849972D02*
X139461933Y-97811267D01*
X139461933Y-97811267D02*
X139384523Y-97772562D01*
X139384523Y-97772562D02*
X139191000Y-97772562D01*
X139191000Y-97772562D02*
X139074885Y-97811267D01*
X138262086Y-98585362D02*
X138533019Y-98198315D01*
X138726543Y-98585362D02*
X138726543Y-97772562D01*
X138726543Y-97772562D02*
X138416905Y-97772562D01*
X138416905Y-97772562D02*
X138339495Y-97811267D01*
X138339495Y-97811267D02*
X138300790Y-97849972D01*
X138300790Y-97849972D02*
X138262086Y-97927381D01*
X138262086Y-97927381D02*
X138262086Y-98043496D01*
X138262086Y-98043496D02*
X138300790Y-98120905D01*
X138300790Y-98120905D02*
X138339495Y-98159610D01*
X138339495Y-98159610D02*
X138416905Y-98198315D01*
X138416905Y-98198315D02*
X138726543Y-98198315D01*
X137449286Y-98507953D02*
X137487990Y-98546658D01*
X137487990Y-98546658D02*
X137604105Y-98585362D01*
X137604105Y-98585362D02*
X137681514Y-98585362D01*
X137681514Y-98585362D02*
X137797628Y-98546658D01*
X137797628Y-98546658D02*
X137875038Y-98469248D01*
X137875038Y-98469248D02*
X137913743Y-98391838D01*
X137913743Y-98391838D02*
X137952447Y-98237019D01*
X137952447Y-98237019D02*
X137952447Y-98120905D01*
X137952447Y-98120905D02*
X137913743Y-97966086D01*
X137913743Y-97966086D02*
X137875038Y-97888677D01*
X137875038Y-97888677D02*
X137797628Y-97811267D01*
X137797628Y-97811267D02*
X137681514Y-97772562D01*
X137681514Y-97772562D02*
X137604105Y-97772562D01*
X137604105Y-97772562D02*
X137487990Y-97811267D01*
X137487990Y-97811267D02*
X137449286Y-97849972D01*
X141900333Y-99352058D02*
X141706809Y-99893924D01*
X141706809Y-99893924D02*
X141513286Y-99352058D01*
X140777895Y-99893924D02*
X141242352Y-99893924D01*
X141010124Y-99893924D02*
X141010124Y-99081124D01*
X141010124Y-99081124D02*
X141087533Y-99197239D01*
X141087533Y-99197239D02*
X141164943Y-99274648D01*
X141164943Y-99274648D02*
X141242352Y-99313353D01*
X140429553Y-99816515D02*
X140390848Y-99855220D01*
X140390848Y-99855220D02*
X140429553Y-99893924D01*
X140429553Y-99893924D02*
X140468257Y-99855220D01*
X140468257Y-99855220D02*
X140429553Y-99816515D01*
X140429553Y-99816515D02*
X140429553Y-99893924D01*
X139887686Y-99081124D02*
X139810276Y-99081124D01*
X139810276Y-99081124D02*
X139732867Y-99119829D01*
X139732867Y-99119829D02*
X139694162Y-99158534D01*
X139694162Y-99158534D02*
X139655457Y-99235943D01*
X139655457Y-99235943D02*
X139616752Y-99390762D01*
X139616752Y-99390762D02*
X139616752Y-99584286D01*
X139616752Y-99584286D02*
X139655457Y-99739105D01*
X139655457Y-99739105D02*
X139694162Y-99816515D01*
X139694162Y-99816515D02*
X139732867Y-99855220D01*
X139732867Y-99855220D02*
X139810276Y-99893924D01*
X139810276Y-99893924D02*
X139887686Y-99893924D01*
X139887686Y-99893924D02*
X139965095Y-99855220D01*
X139965095Y-99855220D02*
X140003800Y-99816515D01*
X140003800Y-99816515D02*
X140042505Y-99739105D01*
X140042505Y-99739105D02*
X140081209Y-99584286D01*
X140081209Y-99584286D02*
X140081209Y-99390762D01*
X140081209Y-99390762D02*
X140042505Y-99235943D01*
X140042505Y-99235943D02*
X140003800Y-99158534D01*
X140003800Y-99158534D02*
X139965095Y-99119829D01*
X139965095Y-99119829D02*
X139887686Y-99081124D01*
D11*
X137938094Y-100157419D02*
X137938094Y-99157419D01*
X137938094Y-99157419D02*
X137699999Y-99157419D01*
X137699999Y-99157419D02*
X137557142Y-99205038D01*
X137557142Y-99205038D02*
X137461904Y-99300276D01*
X137461904Y-99300276D02*
X137414285Y-99395514D01*
X137414285Y-99395514D02*
X137366666Y-99585990D01*
X137366666Y-99585990D02*
X137366666Y-99728847D01*
X137366666Y-99728847D02*
X137414285Y-99919323D01*
X137414285Y-99919323D02*
X137461904Y-100014561D01*
X137461904Y-100014561D02*
X137557142Y-100109800D01*
X137557142Y-100109800D02*
X137699999Y-100157419D01*
X137699999Y-100157419D02*
X137938094Y-100157419D01*
X136414285Y-100157419D02*
X136985713Y-100157419D01*
X136699999Y-100157419D02*
X136699999Y-99157419D01*
X136699999Y-99157419D02*
X136795237Y-99300276D01*
X136795237Y-99300276D02*
X136890475Y-99395514D01*
X136890475Y-99395514D02*
X136985713Y-99443133D01*
M02*
