%TF.GenerationSoftware,KiCad,Pcbnew,8.0.7-8.0.7-0~ubuntu24.04.1*%
%TF.CreationDate,2025-01-28T12:27:13-05:00*%
%TF.ProjectId,optode-alex,6f70746f-6465-42d6-916c-65782e6b6963,rev?*%
%TF.SameCoordinates,Original*%
%TF.FileFunction,Legend,Top*%
%TF.FilePolarity,Positive*%
%FSLAX46Y46*%
G04 Gerber Fmt 4.6, Leading zero omitted, Abs format (unit mm)*
G04 Created by KiCad (PCBNEW 8.0.7-8.0.7-0~ubuntu24.04.1) date 2025-01-28 12:27:13*
%MOMM*%
%LPD*%
G01*
G04 APERTURE LIST*
%ADD10C,0.150000*%
%ADD11C,0.100000*%
%ADD12C,0.120000*%
G04 APERTURE END LIST*
D10*
X140966666Y-98254819D02*
X140966666Y-98969104D01*
X140966666Y-98969104D02*
X140919047Y-99111961D01*
X140919047Y-99111961D02*
X140823809Y-99207200D01*
X140823809Y-99207200D02*
X140680952Y-99254819D01*
X140680952Y-99254819D02*
X140585714Y-99254819D01*
X141966666Y-99254819D02*
X141395238Y-99254819D01*
X141680952Y-99254819D02*
X141680952Y-98254819D01*
X141680952Y-98254819D02*
X141585714Y-98397676D01*
X141585714Y-98397676D02*
X141490476Y-98492914D01*
X141490476Y-98492914D02*
X141395238Y-98540533D01*
D11*
%TO.C,D1*%
X136045000Y-97070000D02*
X138745000Y-97070000D01*
X136045000Y-100570000D02*
X136045000Y-97070000D01*
X137395000Y-97070000D02*
X138695000Y-98670000D01*
X138745000Y-97070000D02*
X138745000Y-100570000D01*
X138745000Y-100570000D02*
X136045000Y-100570000D01*
D12*
%TO.C,J1*%
X142705000Y-97165000D02*
X143400000Y-97165000D01*
X142705000Y-97850000D02*
X142705000Y-97165000D01*
X142705000Y-98535000D02*
X142705000Y-100410000D01*
X142705000Y-98535000D02*
X142791724Y-98535000D01*
X142705000Y-100410000D02*
X143005507Y-100410000D01*
X143794493Y-100410000D02*
X144095000Y-100410000D01*
X144008276Y-98535000D02*
X144095000Y-98535000D01*
X144095000Y-98535000D02*
X144095000Y-100410000D01*
%TD*%
M02*
